<svg width="30" height="30" viewBox="0 0 30 30" fill="none" xmlns="http://www.w3.org/2000/svg">
<path d="M21.9379 6.438C22.0446 6.33137 22.1712 6.24678 22.3105 6.18907C22.4498 6.13136 22.5991 6.10166 22.7499 6.10166C22.9007 6.10166 23.0501 6.13136 23.1894 6.18907C23.3287 6.24678 23.4553 6.33137 23.5619 6.438C23.6686 6.54463 23.7532 6.67123 23.8109 6.81055C23.8686 6.94987 23.8983 7.0992 23.8983 7.25C23.8983 7.4008 23.8686 7.55013 23.8109 7.68945C23.7532 7.82877 23.6686 7.95537 23.5619 8.062L16.6259 15L23.5619 21.938L23.7099 22.118C23.8546 22.339 23.9188 22.6032 23.8916 22.8659C23.8645 23.1287 23.7477 23.3741 23.5609 23.5609C23.3741 23.7477 23.1286 23.8645 22.8659 23.8917C22.6031 23.9188 22.339 23.8547 22.1179 23.71L21.9379 23.562L14.9999 16.624L8.06193 23.564C7.95517 23.6706 7.82844 23.7552 7.689 23.8129C7.54955 23.8705 7.40012 23.9001 7.24922 23.9C7.09833 23.9 6.94893 23.8701 6.80956 23.8123C6.67018 23.7545 6.54356 23.6698 6.43693 23.563C6.3303 23.4562 6.24574 23.3295 6.18808 23.1901C6.13042 23.0506 6.10079 22.9012 6.10088 22.7503C6.10098 22.5994 6.13079 22.45 6.18862 22.3106C6.24645 22.1713 6.33117 22.0446 6.43793 21.938L13.3759 15L6.43593 8.062L6.28993 7.882C6.14412 7.66099 6.07905 7.39643 6.10569 7.133C6.13234 6.86957 6.24906 6.6234 6.43617 6.43606C6.62328 6.24871 6.8693 6.13168 7.1327 6.1047C7.3961 6.07773 7.66074 6.14247 7.88193 6.288L8.06193 6.438L14.9999 13.374L21.9379 6.438Z" fill="black"/>
</svg>
